<svg width="25" height="25" viewBox="0 0 25 25" fill="none" xmlns="http://www.w3.org/2000/svg">
<g clip-path="url(#clip0_1_126)">
<path d="M20.8899 4.66365C20.3804 4.15134 19.775 3.74442 19.1083 3.46614C18.4415 3.18786 17.7265 3.04367 17.004 3.04181C16.2815 3.03995 15.5658 3.18045 14.8976 3.4553C14.2294 3.73014 13.622 4.13394 13.1099 4.64361L12.0472 5.70088L10.9899 4.63815C9.96086 3.60381 8.56309 3.02061 7.10406 3.01685C5.64503 3.0131 4.24427 3.58909 3.20992 4.61812C2.17558 5.64715 1.59238 7.04493 1.58862 8.50396C1.58486 9.96299 2.16086 11.3637 3.18989 12.3981L4.24715 13.4608L12.0071 21.2608L19.8071 13.5009L20.8698 12.4436C21.3821 11.9342 21.7891 11.3288 22.0673 10.6621C22.3456 9.99531 22.4898 9.28027 22.4917 8.55778C22.4935 7.8353 22.353 7.11953 22.0782 6.45136C21.8033 5.78319 21.3995 5.17572 20.8899 4.66365V4.66365Z" stroke="#BFBFBF" stroke-width="2" stroke-linecap="round" stroke-linejoin="round"/>
</g>
<defs>
<clipPath id="clip0_1_126">
<rect width="24" height="24" fill="white" transform="translate(0.0618011) rotate(0.147539)"/>
</clipPath>
</defs>
</svg>
